<svg width="130" height="84" viewBox="0 0 130 84" fill="none" xmlns="http://www.w3.org/2000/svg">
<g opacity="0.05">
<path d="M105.218 40.3051C104.061 21.1492 88.1594 5.97125 68.7126 5.97125C51.8198 5.97125 37.6019 17.4242 33.4004 32.9889C32.4959 32.8913 31.5772 32.8412 30.6467 32.8412C16.6313 32.8412 5.26953 44.203 5.26953 58.2185C5.26953 72.2339 16.6313 83.5957 30.6467 83.5957C30.7763 83.5957 30.9057 83.5947 31.0348 83.5928C31.1541 83.5947 31.2734 83.5957 31.3931 83.5957H107.525C119.479 83.5957 129.17 73.9048 129.17 61.9504C129.17 49.996 119.479 40.3051 107.525 40.3051H105.218Z" fill="#003359"/>
</g>
<path d="M100.742 34.3339C99.5846 15.1779 83.6828 0 64.236 0C47.3432 0 33.1254 11.453 28.9238 27.0177C28.0193 26.9201 27.1006 26.87 26.1702 26.87C12.1547 26.87 0.792969 38.2318 0.792969 52.2472C0.792969 66.2627 12.1547 77.6244 26.1702 77.6244C26.2998 77.6244 26.4291 77.6234 26.5583 77.6215C26.6775 77.6234 26.7969 77.6244 26.9166 77.6244H103.048C115.003 77.6244 124.693 67.9335 124.693 55.9791C124.693 44.0248 115.003 34.3339 103.048 34.3339H100.742Z" fill="white"/>
<g opacity="0.6">
<path fill-rule="evenodd" clip-rule="evenodd" d="M68.528 43.92H61.9426C61.0372 43.92 60.2963 43.1792 60.2963 42.2737V34.042H57.6786C56.2134 34.042 55.489 32.2639 56.5262 31.2267L64.0829 23.67C64.3905 23.3617 64.8081 23.1885 65.2436 23.1885C65.679 23.1885 66.0966 23.3617 66.4042 23.67L73.9609 31.2267C74.9981 32.2639 74.2573 34.042 72.792 34.042H70.1744V42.2737C70.1744 43.1792 69.4335 43.92 68.528 43.92ZM75.1134 47.2127H55.3573C54.4518 47.2127 53.7109 47.9535 53.7109 48.859C53.7109 49.7645 54.4518 50.5054 55.3573 50.5054H75.1134C76.0189 50.5054 76.7597 49.7645 76.7597 48.859C76.7597 47.9535 76.0189 47.2127 75.1134 47.2127Z" fill="#0066B2"/>
</g>
</svg>
